<svg width="30" height="30" viewBox="0 0 30 30" fill="none" xmlns="http://www.w3.org/2000/svg"><path d="M28.622 5.128l-3.75-3.75a.703.703 0 00-.994.994l.365.364-6.724 5.04-4.532.906a.693.693 0 00-.359.193L2.864 18.64a2.578 2.578 0 000 3.646l4.85 4.849a2.578 2.578 0 003.645 0l9.763-9.764a.693.693 0 00.192-.359l.907-4.531 5.04-6.725.364.365a.703.703 0 00.994-.994h.003zM10.364 26.141a1.172 1.172 0 01-1.657 0L3.86 21.293a1.172 1.172 0 010-1.657l.829-.828 6.505 6.505-.829.828zm1.824-1.823l-6.505-6.506 5.567-5.567 6.505 6.505-5.567 5.568zM21 11.766a.69.69 0 00-.126.283l-.897 4.474-1.227 1.232-6.505-6.505 1.232-1.227 4.479-.896c.103-.02.2-.064.283-.127l7.013-5.26 1.012 1.013L21 11.766z" fill="#096D8E"/></svg>