<svg width="30" height="30" viewBox="0 0 30 30" fill="none" xmlns="http://www.w3.org/2000/svg"><path d="M16.172 23.906a1.172 1.172 0 11-2.345 0 1.172 1.172 0 012.345 0zm11.462-13.53a19.922 19.922 0 00-25.268 0 .704.704 0 10.893 1.087 18.516 18.516 0 0123.482 0 .703.703 0 10.893-1.086zm-3.759 4.195a14.297 14.297 0 00-17.75 0A.704.704 0 107 15.674a12.89 12.89 0 0116 0c.126.096.28.148.438.146a.703.703 0 00.437-1.254v.005zm-3.773 4.196a8.672 8.672 0 00-10.203 0 .703.703 0 00.828 1.137 7.265 7.265 0 018.547 0 .704.704 0 00.828-1.137z" fill="#096D8E"/></svg>