<svg width="23" height="23" viewBox="0 0 23 23" fill="none" xmlns="http://www.w3.org/2000/svg"><path d="M19.853 10.825v-.473c-.002-2.793-2.35-5.056-5.247-5.058h-9.36C2.35 5.296.002 7.56 0 10.352v.473c.002 2.792 2.35 5.056 5.246 5.057h9.36c2.897-.001 5.245-2.265 5.247-5.057zM5.644 14.759c-2.388 0-4.325-1.868-4.325-4.17 0-2.304 1.937-4.171 4.325-4.171h8.566c2.388 0 4.325 1.867 4.325 4.17s-1.937 4.17-4.325 4.17a4.033 4.033 0 01-2.605-1.41l-.006-.007a1.897 1.897 0 00-1.356-.562c-.55 0-1.043.229-1.385.593l-.002.002a4.361 4.361 0 01-3.208 1.385h-.006.002z" fill="#096D8E"/><path d="M21.97.002h-1.672c-.295 0-.533.253-.534.564v3a.55.55 0 00.485.559h.002V14.95c-.003 2.297-1.765 4.16-3.94 4.162H11.1c-.357-.904-1.187-1.529-2.154-1.529-1.286 0-2.328 1.1-2.328 2.459 0 1.357 1.042 2.458 2.328 2.458h.006c.967 0 1.795-.625 2.143-1.514l.005-.016h5.212c3.15-.003 5.705-2.7 5.707-6.027V4.126a.55.55 0 00.482-.557V.561c0-.31-.238-.56-.53-.561v.002z" fill="#096D8E"/></svg>