<svg width="30" height="30" viewBox="0 0 30 30" fill="none" xmlns="http://www.w3.org/2000/svg"><path d="M15 3.047A11.953 11.953 0 1026.953 15 11.967 11.967 0 0015 3.047zm4.274 15.234a5.375 5.375 0 000-6.562l3.66-3.66a10.525 10.525 0 010 13.88l-3.66-3.658zM11.016 15a3.984 3.984 0 117.969 0 3.984 3.984 0 01-7.97 0zM21.94 7.065l-3.659 3.661a5.375 5.375 0 00-6.562 0L8.06 7.066a10.525 10.525 0 0113.88 0zM7.065 8.06l3.661 3.659a5.375 5.375 0 000 6.562l-3.66 3.659a10.524 10.524 0 010-13.88zm.995 14.875l3.659-3.661a5.375 5.375 0 006.562 0l3.66 3.66a10.525 10.525 0 01-13.88 0z" fill="#096D8E"/></svg>