<svg width="30" height="30" viewBox="0 0 30 30" fill="none" xmlns="http://www.w3.org/2000/svg"><path d="M15 7.734a4.453 4.453 0 100 8.907 4.453 4.453 0 000-8.907zm0 7.5a3.047 3.047 0 110-6.094 3.047 3.047 0 010 6.094zM15 2.11A10.09 10.09 0 004.922 12.188c0 3.622 1.68 7.469 4.86 11.125a29.567 29.567 0 004.815 4.453.703.703 0 00.806 0 29.57 29.57 0 004.815-4.453c3.18-3.656 4.86-7.5 4.86-11.125A10.09 10.09 0 0015 2.108zm0 24.2c-1.758-1.356-8.672-7.135-8.672-14.122a8.672 8.672 0 0117.344 0c0 6.987-6.914 12.766-8.672 14.123z" fill="#096D8E"/></svg>