<svg width="36" height="36" viewBox="0 0 36 36" fill="none" xmlns="http://www.w3.org/2000/svg"><path d="M17.178 14.61c-.772.052-1.55.201-2.33.434-.496.15-.989.428-1.39.758-1.18.97-1.018 2.75.286 3.537.229.14.482.25.736.338.953.329 1.946.406 2.944.412 1.048.006 2.082.087 3.071.459.31.115.618.266.884.463.444.329.458.863.043 1.23a2.498 2.498 0 01-.692.417c-.728.303-1.5.406-2.28.428-1.06.03-2.121.043-3.145-.309-.574-.196-1.089-.463-1.17-1.14h-1.441c-.01.643.27 1.132.707 1.538.71.657 1.57 1.027 2.508 1.22 1.393.282 2.792.232 4.187.017.758-.117 1.476-.35 2.116-.794 1.14-.79 1.588-2.92-.217-3.863-.136-.07-.271-.143-.411-.206-1.138-.495-2.34-.687-3.568-.72-.955-.024-1.904-.066-2.806-.406a2.928 2.928 0 01-.797-.444c-.349-.283-.359-.722-.02-1.013.233-.2.52-.38.813-.463.59-.164 1.194-.305 1.802-.368a7.763 7.763 0 014.002.643c.282.125.55.28.655.608.012.04.093.081.144.081.45.006.902.004 1.38.004.015-.515-.156-.93-.498-1.227-.373-.321-.775-.636-1.217-.842a8.626 8.626 0 00-2.78-.769l-.001-1.127h4.519v-1.502H12.665v1.502h4.521c0 .283 0 .808-.002 1.105m2.815-3.976H18.69v-.707a1.84 1.84 0 00-.756-3.515c-.509 0-.97.206-1.304.538a1.836 1.836 0 00.547 2.977v.707H15.87v.746H20v-.746zm-1.565-1.887a.704.704 0 11-.996-.997.704.704 0 01.996.997z" fill="#096D8E"/><path d="M34.769 14.031c-.93-1.397-2.32-2.547-3.808-3.157-1.283-.526-2.68-.68-4.156-.46a12.821 12.821 0 00-4.882-3.102V4.046c0-2.175-1.741-3.99-3.882-4.044a3.948 3.948 0 00-2.887 1.125 3.94 3.94 0 00-1.204 2.848v3.337a12.852 12.852 0 00-4.882 3.103c-1.476-.218-2.873-.065-4.154.46-1.49.61-2.877 1.76-3.808 3.158-.985 1.478-1.334 3.058-.959 4.336.148.507.615 1.712 1.713 1.964.128.029.256.045.382.045.817 0 1.398-.59 1.962-1.16.298-.303.604-.61.95-.857a14.868 14.868 0 00-.151 2.124c0 2.464.612 4.873 1.774 6.99-.027.024-.05.05-.077.074-.677.655-1.813 1.749-2.539 3.006-1.177 2.037-.628 3.426.043 4.234l.055.065.065.053c.59.479 1.204.711 1.877.711 1.48 0 2.946-1.138 4.799-2.577l.62-.481a12.253 12.253 0 006.322 1.768c2.217 0 4.395-.61 6.32-1.768.218.168.425.327.621.481 1.853 1.441 3.319 2.58 4.799 2.577.673 0 1.285-.232 1.877-.711l.065-.053.055-.065c.669-.806 1.22-2.197.043-4.234-.726-1.257-1.862-2.35-2.539-3.006l-.077-.075a14.534 14.534 0 001.774-6.989c0-.712-.05-1.423-.152-2.124.347.246.653.555.95.859.564.57 1.146 1.16 1.963 1.16.126 0 .254-.014.382-.045 1.098-.252 1.563-1.457 1.713-1.964.375-1.278.026-2.858-.96-4.336M24.78 31.81l-.008-.006.28-.346-.272.352zm9.316-13.918c-.136.465-.353.742-.446.78-.144-.034-.538-.433-.75-.649-.534-.54-1.264-1.28-2.312-1.643a3.874 3.874 0 00-.519-.14l-.077-.008c-.073-.004-.19-.014-.304-.01-.144.004-.284.02-.332.024a.713.713 0 00-.595.453.737.737 0 00-.02.463c.252.952.394 1.94.424 2.935v.784a12.765 12.765 0 01-1.9 6.367.707.707 0 00.063.835c.035.04.07.079.104.12.12.133.48.496.565.577 1.056 1.019 3.516 3.394 2.42 4.863-.93.692-1.874.08-4.476-1.942-.212-.166-.435-.34-.666-.518l-.503-.406a.699.699 0 00-.833-.036l-.106.07-.241.168a10.56 10.56 0 01-5.644 1.65 10.56 10.56 0 01-5.645-1.65l-.286-.194a.805.805 0 00-.918.027c-.215.165-.517.404-.545.426l-.598.463c-2.601 2.021-3.546 2.634-4.477 1.942-1.095-1.471 1.365-3.844 2.419-4.863.043-.04.184-.188.416-.424l.206-.213a.74.74 0 00.1-.909 12.765 12.765 0 01-1.892-6.35v-.785c.029-.984.168-1.96.416-2.903a.77.77 0 00-.126-.67c-.142-.183-.359-.273-.592-.322a1.898 1.898 0 00-.541.018c-.258.039-.515.144-.578.166-1.048.364-1.778 1.103-2.311 1.643-.213.216-.606.613-.75.649-.094-.038-.31-.315-.446-.78-.505-1.72 1.398-4.463 3.775-5.435.91-.372 1.913-.502 2.982-.386.101.01.357.03.679.054l.197.014a.722.722 0 00.586-.23 11.57 11.57 0 011.64-1.467l.648-.443c.886-.56 1.835-.985 2.822-1.261l.207-.055.03-.008a.592.592 0 00.26-.182.46.46 0 00.081-.265l-.03-4.248c0-.617.243-1.195.687-1.626a2.264 2.264 0 011.65-.642c1.223.032 2.216 1.081 2.216 2.34v3.345c-.006.1-.006.308 0 .868v.054a.402.402 0 00.339.384l.05.008.157.027c.987.276 1.936.7 2.822 1.26l.649.444c.626.46 1.212.992 1.741 1.578a.72.72 0 00.75.204c.18-.056.377-.107.602-.151h.043l.022-.01c1.044-.106 2.028.026 2.922.392 2.374.972 4.28 3.715 3.775 5.435" fill="#096D8E"/><path d="M24.33 24.036v.6c.01 1.61-1.821 1.765-3.086 2.123-1.058.3-1.839.546-2.56.938.008-1.09.011-1.955.018-2.519l-.292.047c-.116.018-.71.026-.825.01l-.408-.057s.006 1.5.012 2.517c-.721-.392-1.502-.639-2.56-.938-1.265-.358-3.096-.514-3.088-2.122v-.6h1.123l-2.242-2.543v3.118c0 4.11 6.435 3.18 7.513 7.428 1.079-4.248 7.514-3.318 7.514-7.428v-3.118l-2.243 2.542h1.122l.002.002z" fill="#096D8E"/></svg>