<?xml version="1.0" encoding="UTF-8"?>
<svg xmlns="http://www.w3.org/2000/svg" width="28" height="28" viewBox="0 0 28 28" fill="none">
  <path d="M13.415 11.817a8.19 8.19 0 00-1.786.333c-.38.114-.758.328-1.066.58-.905.745-.78 2.11.22 2.713a2.9 2.9 0 00.564.259c.73.253 1.492.311 2.257.316.803.005 1.596.067 2.355.352.238.088.474.204.677.355.34.252.352.662.033.944-.152.134-.34.24-.53.319-.558.232-1.15.311-1.749.329-.813.023-1.626.032-2.41-.238-.44-.15-.836-.355-.898-.874H9.977c-.008.493.207.868.543 1.18.544.503 1.203.787 1.922.934 1.068.217 2.14.178 3.21.014.582-.09 1.132-.268 1.623-.609.874-.606 1.218-2.24-.166-2.962-.104-.054-.208-.11-.316-.158-.872-.38-1.793-.527-2.736-.551-.732-.019-1.46-.052-2.15-.312a2.245 2.245 0 01-.612-.34c-.267-.218-.275-.554-.015-.777.178-.154.4-.292.623-.355a8.436 8.436 0 011.382-.282 5.953 5.953 0 013.069.492c.216.097.42.216.502.467.009.031.071.062.11.062.345.005.692.003 1.059.003.01-.395-.12-.713-.383-.94-.286-.247-.594-.489-.933-.647a6.615 6.615 0 00-2.13-.589l-.002-.865h3.465V9.82H9.955v1.151h3.467c0 .217 0 .62-.002.848m2.158-3.049h-1.003v-.543a1.41 1.41 0 00-.58-2.695c-.39 0-.743.158-1 .412a1.408 1.408 0 00.42 2.283v.542h-1.002v.572h3.165V8.77zm-1.2-1.448a.54.54 0 11-.764-.764.54.54 0 01.764.764z" fill="#17096F"></path>
  <path d="M26.902 11.373c-.713-1.07-1.778-1.953-2.919-2.42-.984-.404-2.055-.521-3.187-.354a9.832 9.832 0 00-3.743-2.377V3.717c0-1.667-1.335-3.06-2.977-3.101a3.027 3.027 0 00-2.213.863 3.02 3.02 0 00-.924 2.184v2.559A9.854 9.854 0 007.196 8.6c-1.132-.168-2.203-.05-3.185.353-1.143.466-2.206 1.348-2.92 2.42C.336 12.509.07 13.72.356 14.7c.114.39.471 1.313 1.314 1.507a1.4 1.4 0 00.292.034c.626 0 1.073-.453 1.505-.89.228-.232.463-.468.729-.657a11.399 11.399 0 00-.117 1.629c0 1.889.47 3.736 1.36 5.359-.02.019-.038.039-.059.057-.519.503-1.39 1.34-1.946 2.305-.903 1.562-.482 2.627.033 3.247l.042.05.05.04c.452.367.923.545 1.439.545 1.135 0 2.259-.872 3.68-1.976l.475-.369A9.394 9.394 0 0014 26.936c1.7 0 3.37-.468 4.847-1.356.166.129.325.251.476.37 1.42 1.104 2.544 1.977 3.68 1.975.515 0 .985-.178 1.439-.545l.05-.04.041-.05c.513-.619.936-1.685.033-3.247-.557-.964-1.427-1.802-1.946-2.305l-.06-.057a11.142 11.142 0 001.36-5.36c0-.545-.038-1.09-.116-1.628.266.189.5.426.73.659.431.437.878.89 1.504.89.096 0 .194-.012.292-.035.843-.194 1.199-1.117 1.314-1.506.287-.98.02-2.192-.735-3.325m-7.666 13.63L19.237 25l.215-.265-.209.27zm7.143-10.673c-.104.357-.27.57-.342.599-.11-.027-.412-.332-.575-.498-.409-.414-.968-.98-1.772-1.26a2.983 2.983 0 00-.398-.107l-.06-.006c-.055-.003-.145-.01-.232-.008-.11.003-.218.016-.255.019a.547.547 0 00-.471.702c.193.73.301 1.488.325 2.25v.601a9.786 9.786 0 01-1.457 4.882.542.542 0 00.048.64l.08.092c.091.102.368.381.433.443.81.781 2.696 2.602 1.856 3.729-.713.53-1.438.06-3.432-1.49l-.511-.396-.386-.312a.536.536 0 00-.639-.027 2.697 2.697 0 01-.08.054l-.186.128a8.098 8.098 0 01-4.327 1.265 8.097 8.097 0 01-4.328-1.265l-.22-.148a.617.617 0 00-.703.02c-.165.127-.397.31-.419.327-.024.02-.318.246-.458.355-1.995 1.55-2.719 2.02-3.433 1.489-.839-1.128 1.047-2.948 1.855-3.729.033-.03.141-.144.319-.325l.158-.163a.567.567 0 00.076-.697 9.787 9.787 0 01-1.45-4.87v-.601a9.896 9.896 0 01.319-2.226.59.59 0 00-.097-.514c-.108-.14-.275-.21-.454-.247a1.453 1.453 0 00-.415.014c-.197.03-.394.11-.443.127-.803.28-1.363.847-1.772 1.26-.163.166-.465.47-.575.498-.071-.03-.238-.242-.342-.598-.387-1.32 1.073-3.422 2.895-4.168.698-.285 1.467-.384 2.286-.296.078.008.274.023.521.042l.15.01a.554.554 0 00.45-.176 8.876 8.876 0 011.258-1.125l.497-.34a8.192 8.192 0 012.164-.967l.159-.041.023-.007a.454.454 0 00.199-.14.352.352 0 00.062-.202l-.023-3.258c0-.472.186-.916.527-1.246.34-.33.788-.505 1.265-.493.937.025 1.699.83 1.699 1.795v2.565c-.005.076-.005.236 0 .665V7a.308.308 0 00.26.294l.038.006.12.02a8.194 8.194 0 012.164.968l.497.339c.48.353.93.76 1.336 1.21.144.16.37.222.575.157a4.2 4.2 0 01.462-.116h.032l.017-.008c.801-.08 1.555.02 2.24.3 1.82.746 3.282 2.85 2.895 4.168" fill="#17096F"></path>
  <path d="M18.898 19.045v.46c.008 1.234-1.396 1.353-2.366 1.628-.811.229-1.41.418-1.963.719l.014-1.931-.224.035a5.08 5.08 0 01-.633.008l-.312-.043.01 1.93c-.554-.302-1.153-.49-1.964-.72-.97-.274-2.374-.394-2.368-1.627v-.46h.862l-1.72-1.95v2.391c0 3.15 4.934 2.438 5.761 5.696.827-3.258 5.761-2.545 5.761-5.696v-2.391l-1.719 1.95h.86l.001.001z" fill="#17096F"></path>
</svg>
