<svg width="374" height="46" viewBox="0 0 374 46" fill="none" xmlns="http://www.w3.org/2000/svg"><path d="M188.591 29.708a7.83 7.83 0 00-1.707.318c-.364.11-.725.314-1.019.556-.865.71-.746 2.016.209 2.592.168.103.354.184.54.248.698.241 1.426.298 2.157.302.769.005 1.526.064 2.251.336.228.085.454.196.648.34.326.241.336.632.032.902-.146.129-.326.23-.507.305-.534.222-1.1.298-1.672.314-.777.022-1.554.031-2.305-.227-.42-.143-.798-.339-.857-.835h-1.056c-.008.47.197.83.518 1.127.52.482 1.15.753 1.838.894 1.021.207 2.046.17 3.069.013.555-.086 1.082-.256 1.551-.582.835-.58 1.164-2.141-.159-2.831-.099-.052-.199-.106-.302-.151-.833-.364-1.714-.504-2.615-.528-.7-.018-1.395-.049-2.056-.298a2.149 2.149 0 01-.584-.326c-.256-.207-.263-.529-.015-.742a1.65 1.65 0 01.596-.34 8.05 8.05 0 011.321-.269 5.69 5.69 0 012.933.471c.206.092.403.206.48.446.009.03.068.06.105.06.33.004.662.002 1.012.002.011-.377-.114-.681-.365-.899-.274-.235-.568-.466-.892-.617a6.326 6.326 0 00-2.037-.564l-.002-.826h3.313v-1.1h-7.73v1.1h3.313l-.001.81m2.062-2.914h-.958v-.518a1.341 1.341 0 00.796-1.23 1.344 1.344 0 00-1.35-1.347c-.373 0-.711.152-.956.395a1.348 1.348 0 00.401 2.182v.518h-.958v.547h3.025v-.547zm-1.147-1.384a.515.515 0 11-.729-.728.515.515 0 01.729.729z" fill="#096D8E"/><path d="M201.484 29.284c-.683-1.024-1.7-1.867-2.791-2.314-.941-.385-1.965-.498-3.046-.338a9.405 9.405 0 00-3.578-2.272v-2.394c0-1.595-1.277-2.925-2.846-2.965a2.894 2.894 0 00-2.116.825 2.889 2.889 0 00-.883 2.088v2.446a9.42 9.42 0 00-3.578 2.274c-1.082-.16-2.105-.048-3.045.337-1.092.446-2.108 1.29-2.79 2.314-.722 1.084-.978 2.242-.703 3.178.108.372.45 1.255 1.256 1.44.093.021.187.033.279.033.599 0 1.025-.433 1.438-.85.219-.223.443-.448.697-.629a10.938 10.938 0 00-.111 1.557c0 1.806.449 3.572 1.3 5.123l-.056.055c-.497.48-1.329 1.282-1.861 2.203-.863 1.493-.46 2.511.031 3.104l.04.047.048.039c.432.35.883.521 1.376.521 1.085 0 2.159-.834 3.517-1.889l.455-.352a8.982 8.982 0 004.633 1.296 8.977 8.977 0 004.633-1.296l.455.352c1.358 1.057 2.433 1.89 3.517 1.89.494 0 .942-.171 1.376-.522l.048-.039.04-.047c.49-.591.894-1.61.031-3.104-.532-.921-1.364-1.723-1.86-2.203l-.057-.055a10.646 10.646 0 001.3-5.123c0-.521-.037-1.043-.111-1.557.254.181.478.408.697.63.413.418.84.85 1.438.85.092 0 .186-.01.28-.032.805-.185 1.145-1.068 1.255-1.44.275-.937.02-2.095-.703-3.178m-7.327 13.028l-.006-.004.205-.254-.199.258zm6.828-10.201c-.099.34-.258.543-.327.572-.105-.026-.394-.318-.55-.476-.39-.396-.925-.938-1.694-1.204a2.8 2.8 0 00-.38-.103l-.056-.006c-.054-.003-.14-.01-.223-.007-.106.003-.208.015-.244.018a.522.522 0 00-.435.332.54.54 0 00-.015.339c.184.698.288 1.422.31 2.15v.576a9.353 9.353 0 01-1.392 4.666.519.519 0 00.046.612l.076.088c.088.097.352.364.414.423.775.747 2.577 2.488 1.775 3.565-.682.506-1.375.058-3.281-1.424l-.489-.38-.369-.297a.511.511 0 00-.61-.027 3.246 3.246 0 01-.078.052l-.177.123a7.738 7.738 0 01-4.136 1.21 7.739 7.739 0 01-4.137-1.21l-.21-.142a.59.59 0 00-.673.02c-.157.12-.379.295-.4.312-.023.02-.304.235-.438.34-1.906 1.48-2.599 1.93-3.281 1.423-.802-1.079 1-2.818 1.773-3.565.031-.03.135-.137.304-.31l.152-.156a.543.543 0 00.073-.667 9.35 9.35 0 01-1.387-4.655v-.575a9.489 9.489 0 01.305-2.127.565.565 0 00-.092-.492c-.104-.133-.263-.2-.434-.235a1.394 1.394 0 00-.397.013c-.189.028-.377.105-.423.122-.769.266-1.303.808-1.694 1.204-.156.158-.445.449-.55.475-.068-.028-.227-.23-.327-.571-.37-1.261 1.025-3.271 2.767-3.984.667-.273 1.403-.367 2.186-.283.074.007.261.022.497.04l.145.01a.528.528 0 00.429-.169c.369-.398.773-.76 1.202-1.075l.476-.325a7.818 7.818 0 012.068-.924l.152-.04.022-.006a.431.431 0 00.19-.133.339.339 0 00.06-.194l-.023-3.114c0-.452.179-.876.504-1.191a1.66 1.66 0 011.21-.472c.896.024 1.624.793 1.624 1.716v2.452a11.33 11.33 0 000 .635v.04c.004.141.108.26.248.282l.037.006.115.019a7.832 7.832 0 012.068.924l.475.325c.46.338.889.727 1.277 1.157a.528.528 0 00.55.15 4.09 4.09 0 01.441-.112h.031l.017-.007a4.44 4.44 0 012.141.287c1.74.713 3.137 2.723 2.767 3.984" fill="#096D8E"/><path d="M193.832 36.617v.44c.008 1.18-1.334 1.294-2.261 1.556-.776.22-1.348.4-1.877.687.006-.798.009-1.432.013-1.846l-.214.034c-.084.014-.52.02-.604.008l-.299-.042s.004 1.1.009 1.845c-.529-.288-1.101-.468-1.877-.688-.927-.262-2.269-.376-2.263-1.555v-.44h.823l-1.643-1.864v2.286c0 3.012 4.716 2.33 5.507 5.445.79-3.115 5.507-2.433 5.507-5.445v-2.286l-1.644 1.864h.822l.001.001zM118 2.909C118 1.017 119.405 0 121.97 0c1.195 0 2.425.281 3.276.701.159.08.22.202.22.376v.473c0 .246-.149.332-.377.22a6.786 6.786 0 00-3.047-.754c-1.704 0-2.864.508-2.864 1.91 0 1.015.58 1.61 1.74 2.136l3.108 1.435c1.353.63 2.073 1.524 2.073 3.065 0 1.978-1.493 3.116-4.058 3.116-1.476 0-2.838-.314-3.786-.788a.385.385 0 01-.22-.376v-.49c0-.246.15-.333.369-.22.983.499 2.31.858 3.565.858 1.704 0 2.951-.631 2.951-2.12 0-1.103-.579-1.68-1.739-2.223l-3.091-1.436c-1.353-.63-2.09-1.541-2.09-2.978v.003zm24.931 8.756c.904 0 1.845-.22 2.626-.64.229-.113.377-.026.377.22v.482c0 .175-.061.297-.22.376-.756.376-1.774.578-2.925.578-3.6 0-5.165-2.242-5.165-5.692V5.692c0-3.45 1.563-5.692 5.165-5.692 1.151 0 2.169.202 2.925.578.159.079.22.202.22.376v.482c0 .245-.149.332-.377.219a5.6 5.6 0 00-2.626-.64c-2.846 0-4.127 1.559-4.127 4.746v1.156c0 3.187 1.283 4.746 4.127 4.746v.002zm14.867-3.572V.528c0-.202.115-.315.316-.315h.544c.203 0 .316.114.316.315v7.477c0 2.522 1.142 3.625 3.126 3.625 1.985 0 3.091-1.103 3.091-3.625V.528c0-.202.115-.315.316-.315h.545c.202 0 .315.114.315.315v7.565c0 3.328-1.845 4.589-4.268 4.589s-4.303-1.261-4.303-4.589h.002zm26.673-2.083c1.598.279 2.582 1.226 2.582 2.837v.367c0 2.154-1.212 3.257-4.18 3.257h-3.724c-.202 0-.316-.114-.316-.314V.527c0-.201.115-.314.316-.314h3.479c2.705 0 3.899.98 3.899 2.873v.367c0 1.366-.878 2.242-2.055 2.556h-.001zm-2.055-4.781h-2.407v4.378h2.214c1.984 0 3.144-.789 3.144-2.154v-.367c0-1.436-.949-1.857-2.952-1.857h.001zm.053 5.393h-2.458v4.834h2.634c2.354 0 3.25-.701 3.25-2.242v-.367c0-1.541-1.125-2.225-3.426-2.225zm24.504 5.849c-.185 0-.3-.079-.351-.263l-.94-3.187H200.5l-.939 3.187c-.053.184-.168.263-.351.263h-.606c-.229 0-.325-.14-.263-.358L201.846.475c.052-.184.167-.263.35-.263h1.81c.185 0 .299.079.351.263l3.505 11.638c.061.22-.035.358-.264.358h-.625zm-1.572-4.466l-2.002-6.76h-.615l-2.002 6.76h4.62-.001zm18.719 3.66c.904 0 1.844-.22 2.625-.64.229-.113.378-.026.378.22v.482c0 .175-.062.297-.22.376-.756.376-1.775.578-2.926.578-3.6 0-5.164-2.242-5.164-5.692V5.692c0-3.45 1.563-5.692 5.164-5.692 1.151 0 2.17.202 2.926.578.158.079.22.202.22.376v.482c0 .245-.15.332-.378.219a5.6 5.6 0 00-2.625-.64c-2.846 0-4.129 1.559-4.129 4.746v1.156c0 3.187 1.283 4.746 4.129 4.746v.002zm23.153.806c-.185 0-.3-.079-.351-.263l-.939-3.187H240.8l-.939 3.187c-.053.184-.168.263-.351.263h-.606c-.229 0-.325-.14-.263-.358L242.146.475c.053-.184.167-.263.351-.263h1.809c.185 0 .299.079.351.263l3.505 11.638c.062.22-.035.358-.264.358h-.625zm-1.572-4.466l-2.002-6.76h-.615l-2.002 6.76h4.62-.001zm12.345-6.778c-.202 0-.315-.114-.315-.314V.528c0-.202.114-.315.315-.315h8.115c.203 0 .316.114.316.315v.385c0 .202-.114.314-.316.314h-3.478v10.928c0 .202-.114.315-.316.315h-.544c-.203 0-.316-.114-.316-.315V1.227h-3.461zM10.265 23.465H0v-3.666h24.49v3.666h-9.7v19.566h-4.525V23.465zM48.977 19.8h3.394v16.407c0 2.087-1.404 3.787-4.214 5.104-2.47 1.146-5.24 1.72-8.314 1.72-3.072 0-5.561-.574-7.917-1.72-2.697-1.316-4.044-3.008-4.044-5.074V19.8h3.393v15.703c0 1.09 1.047 2.076 3.14 2.96 1.885.79 3.695 1.185 5.428 1.185 1.847 0 3.77-.395 5.768-1.185 2.243-.884 3.366-1.869 3.366-2.96V19.799zm10.18 23.23h-3.394V19.8H67.64c3.28 0 5.91.489 7.89 1.466 2.563 1.259 3.846 3.25 3.846 5.976 0 1.748-.702 3.34-2.107 4.778-1.404 1.438-3.067 2.157-4.99 2.157l7.973 8.852-4.022.007-7.499-8.747h-9.574v8.742zm17.08-15.928c0-1.466-.916-2.517-2.744-3.158-1.453-.507-3.376-.76-5.768-.76h-8.568v7.723h8.568c3.299 0 5.58-.348 6.843-1.043 1.111-.62 1.668-1.54 1.668-2.763v.002zm17.673-3.637H83.645v-3.666h24.489v3.666h-9.7v19.566H93.91V23.465zm42.106 19.565h-24.49V19.8h3.394v19.847h21.096v3.384zm23.356-10.205h-16.57v6.822h21.095v3.384h-24.489V19.799h24.489v3.384h-21.095v6.822h16.57v2.82zm76.519-9.642h-12.527c-2.471 0-4.505.677-6.107 2.03-1.679 1.428-2.518 3.308-2.518 5.638s.834 4.497 2.503 6.217c1.668 1.72 3.708 2.579 6.122 2.579h12.527v3.384h-12.527c-3.451 0-6.354-1.261-8.709-3.782-2.207-2.37-3.31-5.1-3.31-8.186 0-3.348 1.15-6.064 3.451-8.142 2.299-2.08 5.156-3.12 8.568-3.12h12.527v3.384-.002zm10.746 19.847h-3.394V19.8h11.877c3.281 0 5.909.489 7.889 1.466 2.564 1.259 3.847 3.25 3.847 5.976 0 1.748-.702 3.34-2.107 4.778-1.404 1.438-3.067 2.157-4.991 2.157l7.974 8.852-4.022.007-7.499-8.747h-9.574v8.742zm17.079-15.928c0-1.466-.915-2.517-2.743-3.158-1.452-.507-3.374-.76-5.768-.76h-8.568v7.723h8.568c3.299 0 5.58-.348 6.843-1.043 1.111-.62 1.668-1.54 1.668-2.763v.002zM296.18 19.8h3.394v16.407c0 2.087-1.405 3.787-4.215 5.104-2.47 1.146-5.24 1.72-8.313 1.72-3.073 0-5.562-.574-7.917-1.72-2.697-1.316-4.045-3.008-4.045-5.074V19.8h3.394v15.703c0 1.09 1.047 2.076 3.14 2.96 1.884.79 3.695 1.185 5.428 1.185 1.847 0 3.77-.395 5.768-1.185 2.243-.884 3.366-1.869 3.366-2.96V19.799zm14.138 23.23h-3.394V19.8h3.394v23.23zm27.994-1.381c-2.054.92-4.949 1.382-8.681 1.382-3.525 0-6.438-.705-8.737-2.115-2.15-1.316-3.224-2.904-3.224-4.765h3.365c0 1.165.84 2.058 2.521 2.678 1.492.546 3.512.818 6.06.818 2.549 0 4.617-.272 6.259-.818 1.925-.638 2.888-1.55 2.888-2.735 0-.995-.971-1.836-2.913-2.523-1.941-.686-4.062-1.028-6.362-1.028-2.036 0-3.818-.131-5.343-.395-1.98-.338-3.497-.912-4.554-1.72-1.283-.977-1.923-2.302-1.923-3.976 0-2.33 1.319-4.078 3.959-5.244 2.112-.94 4.779-1.41 8.003-1.41 3.054 0 5.834.582 8.341 1.748 2.79 1.297 4.186 2.933 4.186 4.906h-3.507c0-.902-1.159-1.7-3.479-2.397-1.961-.582-3.808-.874-5.541-.874-2.037 0-3.875.244-5.514.733-2.054.603-3.082 1.448-3.082 2.538 0 .997.951 1.805 2.856 2.425 1.64.526 3.507.79 5.598.79 1.564 0 3.225.169 4.978.507 2.224.433 3.978 1.062 5.259 1.89 1.62 1.053 2.432 2.378 2.432 3.975 0 2.594-1.282 4.464-3.846 5.61h.001zm31.163-8.824h-16.57v6.822H374v3.384h-24.489V19.799H374v3.384h-21.095v6.822h16.57v2.82z" fill="#096D8E"/></svg>