<svg width="76" height="22" viewBox="0 0 76 22" fill="none" xmlns="http://www.w3.org/2000/svg"><path d="M.001 11C-.04 7.977 1.043 5.373 3.253 3.186 5.484 1 8.12-.062 11.159.003c3.04-.065 5.675.997 7.906 3.183 2.253 2.187 3.358 4.791 3.316 7.814.042 3.023-1.063 5.627-3.316 7.814-2.231 2.186-4.867 3.247-7.906 3.183-3.04.064-5.675-.997-7.906-3.183C1.043 16.627-.041 14.023 0 11zm17.948 0c0-2.015-.648-3.676-1.944-4.984-1.275-1.33-2.88-1.994-4.814-1.994-1.955 0-3.57.654-4.846 1.962C5.07 7.29 4.432 8.964 4.432 11c0 2.037.638 3.709 1.913 5.016 1.275 1.308 2.89 1.962 4.846 1.962 1.934 0 3.538-.654 4.814-1.962 1.296-1.307 1.944-2.98 1.944-5.016zm6.865 0c-.043-3.044 1.052-5.649 3.283-7.814C30.33 1 32.975-.062 36.035.003c1.998 0 3.805.471 5.42 1.415a10.001 10.001 0 013.857 3.858L42.06 7.591c-1.509-2.379-3.517-3.569-6.025-3.569-1.955 0-3.58.665-4.877 1.994-1.276 1.329-1.913 3.001-1.913 5.016s.637 3.677 1.913 4.984c1.296 1.308 2.922 1.962 4.877 1.962 2.508 0 4.517-1.19 6.026-3.57l3.251 2.316a10.003 10.003 0 01-3.825 3.89c-1.637.922-3.465 1.383-5.484 1.383-3.081.064-5.738-.986-7.97-3.151-2.21-2.187-3.283-4.802-3.22-7.846zM48.97 21.611V.39h4.303v8.135h9.31V.389h4.303V21.61h-4.304v-9.164h-9.309v9.164H48.97zm22.726 0V.39H76v21.22h-4.304z" fill="#F3F4FB"/></svg>