<svg width="103" height="31" viewBox="0 0 103 31" fill="none" xmlns="http://www.w3.org/2000/svg"><path fill-rule="evenodd" clip-rule="evenodd" d="M62.135 8.484a11.344 11.344 0 00-3.899-.656c-4.305 0-7.323 2.118-7.344 5.166-.03 2.232 2.163 3.508 3.801 4.242 1.638.734 2.271 1.266 2.25 1.953 0 1.033-1.349 1.55-2.574 1.55a9.246 9.246 0 01-4.12-.837l-.515-.238-.598 3.514a14.89 14.89 0 004.862.826c4.568 0 7.544-2.108 7.59-5.357.042-1.783-1.137-3.137-3.604-4.263-1.51-.728-2.452-1.204-2.452-1.943 0-.656.814-1.353 2.483-1.353a8.125 8.125 0 013.255.61l.396.175.603-3.394-.134.005zm11.155-.372h-3.353a2.27 2.27 0 00-1.385.279c-.41.23-.726.595-.896 1.033l-6.443 14.343h4.563l.906-2.351h5.578c.139.558.515 2.35.515 2.35h4.017L73.29 8.113zm-28.573-.13h4.357L46.35 23.654h-4.341l2.709-15.67zm-11.062 8.64l.453 2.18 4.25-10.68h4.634l-6.865 15.645H31.54l-3.77-13.253a.878.878 0 00-.397-.516 18.467 18.467 0 00-4.27-1.55l.042-.32h6.999c.445-.05.894.06 1.267.31.364.237.62.608.716 1.033l1.53 7.15zm34.258 1.6l1.736-4.39c-.031.04.355-.905.566-1.494l.304 1.354.994 4.53h-3.6z" fill="#808184"/></svg>