<?xml version="1.0" encoding="UTF-8"?>
<svg xmlns="http://www.w3.org/2000/svg" width="24" height="24" viewBox="0 0 24 24" fill="none">
  <path d="M8.625 12.938a.938.938 0 110-1.876.938.938 0 010 1.876zm6.75-1.876a.937.937 0 100 1.875.937.937 0 000-1.874zm-1.05 4.212a4.407 4.407 0 01-4.65 0 .563.563 0 10-.6.952 5.53 5.53 0 005.85 0 .562.562 0 10-.6-.952zM21.563 12A9.562 9.562 0 1112 2.437 9.574 9.574 0 0121.563 12zm-1.125 0a8.448 8.448 0 00-8.163-8.433c-1.184 1.61-1.213 3.169-1.213 3.183a.938.938 0 001.876 0 .563.563 0 011.124 0 2.062 2.062 0 01-4.124 0c0-.07.014-1.483.95-3.114A8.438 8.438 0 1020.438 12z" fill="#096D8E"></path>
</svg>
