<?xml version="1.0" encoding="UTF-8"?>
<svg xmlns="http://www.w3.org/2000/svg" width="360" height="1288" viewBox="0 0 360 1288" fill="none">
  <mask id="a" style="mask-type:alpha" maskUnits="userSpaceOnUse" x="-3" y="0" width="2880" height="1288">
    <path d="M2362.58 64.343c-189.57-14.693-388.51-43.611-580.36-55.468-197.43-12.23-403.35-11.518-601.08.275-138.82 8.274-273.604 21.915-412.804 29.526C509.672 52.657 242.918 45.562-3 18.157v65.35h2880v-17.07c-162.74 16.308-346.3 10.94-514.42-2.094z" fill="#FA9999"></path>
    <path d="M-3 83.507h1440V1288H-3V83.506z" fill="#FA9999"></path>
  </mask>
  <g mask="url(#a)" fill="#000">
    <path d="M-3 5.695h363v2462.1H-3z"></path>
    <path d="M818.094 1288.97c-71.091-16.89-145.692-50.14-217.638-63.77-74.034-14.06-151.254-13.24-225.405.32-52.056 9.51-102.6 25.19-154.8 33.94-96.999 16.08-197.032 7.92-289.251-23.59V1311h1080v-19.62c-61.029 18.74-129.861 12.57-192.906-2.41z"></path>
  </g>
</svg>
