<svg width="29" height="28" viewBox="0 0 29 28" fill="none" xmlns="http://www.w3.org/2000/svg"><path d="M15.19 22.032h8.977c1.906 0 3.452-1.567 3.452-3.5v-14c0-1.933-1.546-3.5-3.452-3.5H14.5c-1.907 0-3.453 1.567-3.453 3.5v11.9m3.453-9.1h.69m3.798 0h.69m3.798 0h.69m-22.785 10.5l3.522-5.951a4.166 4.166 0 011.7-1.596l.808-.41a4.097 4.097 0 011.853-.443h1.784m-2.762 16.8l3.878-1.503a5.538 5.538 0 002.623-2.124l4.164-6.33a2.328 2.328 0 00-.284-2.908 2.25 2.25 0 00-3.213 0l-3.025 3.065H9.667" stroke="#17096F" stroke-width="2" stroke-linecap="round" stroke-linejoin="round"/></svg>