<svg width="29" height="28" viewBox="0 0 29 28" fill="none" xmlns="http://www.w3.org/2000/svg"><path d="M15.072 22h8.976c1.906 0 3.452-1.567 3.452-3.5v-14c0-1.933-1.546-3.5-3.452-3.5H14.38c-1.907 0-3.452 1.567-3.452 3.5v11.9m3.452-9.1h.69m3.798 0h.69m3.798 0h.69M1.263 17.8l3.522-5.951a4.166 4.166 0 011.7-1.596l.808-.41A4.097 4.097 0 019.145 9.4h1.784M8.167 26.2l3.878-1.503a5.538 5.538 0 002.623-2.124l4.164-6.33a2.328 2.328 0 00-.283-2.908 2.25 2.25 0 00-3.214 0L12.31 16.4H9.548" stroke="#FBE305" stroke-width="2" stroke-linecap="round" stroke-linejoin="round"/></svg>