<?xml version="1.0" encoding="UTF-8"?>
<svg xmlns="http://www.w3.org/2000/svg" width="24" height="24" viewBox="0 0 24 24" fill="none">
  <g clip-path="url(#clip0_4207_898)">
    <path d="M23.813 12.75a6.57 6.57 0 00-6.563-6.563H6.75A6.57 6.57 0 00.187 12.75a2.063 2.063 0 001.564 2.002c.193.772.83 1.505 1.841 2.103 1.012.598 2.208.957 3.158.957a3.567 3.567 0 003.518-3h3.468a3.567 3.567 0 003.514 3c.95 0 2.156-.366 3.157-.957 1.002-.59 1.649-1.33 1.842-2.103a2.063 2.063 0 001.564-2.002zM4.165 15.887c-.86-.512-1.353-1.105-1.353-1.637 0-.623.635-1.237 1.449-1.693l3.768 3.767a2.42 2.42 0 01-1.279.363c-.737 0-1.776-.321-2.585-.8zm4.659-.358L5.366 12.07a4.58 4.58 0 011.384-.258 2.437 2.437 0 012.074 3.717zm5.989-1.279c0-.635.248-1.246.692-1.7l3.672 3.669c-.663.288-1.372.468-1.927.468a2.438 2.438 0 01-2.438-2.437zm5.386 1.406l-3.717-3.716c.248-.084.507-.127.768-.127.737 0 1.776.321 2.585.8.86.512 1.352 1.105 1.352 1.637 0 .499-.407.992-.988 1.406zm1.998-2.08c-.24-.708-.855-1.375-1.79-1.928-1-.594-2.207-.96-3.157-.96a3.567 3.567 0 00-3.518 3h-3.468a3.567 3.567 0 00-3.514-3c-.95 0-2.156.366-3.158.957-.937.553-1.548 1.218-1.79 1.93a.938.938 0 01-.49-.825A5.444 5.444 0 016.75 7.312h10.5a5.444 5.444 0 015.438 5.438.938.938 0 01-.49.824v.003z" fill="#000"></path>
  </g>
  <defs>
    <clipPath id="clip0_4207_898">
      <path fill="#fff" d="M0 0h24v24H0z"></path>
    </clipPath>
  </defs>
</svg>
