<?xml version="1.0" encoding="UTF-8"?>
<svg xmlns="http://www.w3.org/2000/svg" width="1440" height="792" viewBox="0 0 1440 792" fill="none">
  <mask id="a" style="mask-type:alpha" maskUnits="userSpaceOnUse" x="0" y="0" width="2880" height="792">
    <path d="M2365.58 39.53c-189.57-9.026-388.51-26.793-580.36-34.077-197.43-7.514-403.35-7.077-601.08.169-138.82 5.083-273.604 13.463-412.804 18.139C512.672 32.35 245.918 27.992 0 11.155v40.149h2880V40.817c-162.74 10.019-346.3 6.72-514.42-1.287z" fill="#FA9999"></path>
    <path d="M0 51.304h1440v740H0v-740z" fill="#FA9999"></path>
  </mask>
  <g mask="url(#a)">
    <path fill="#000" d="M-15-978h1536v2048H-15z"></path>
    <path d="M1435.62 782.591c-139.81-7.214-286.53-21.412-428.02-27.233-145.603-6.005-297.469-5.656-443.3.135-102.376 4.062-201.78 10.759-304.44 14.496-190.765 6.865-387.496 3.381-568.86-10.074V792h2124v-8.381c-120.02 8.007-255.39 5.372-379.38-1.028z" fill="#fff"></path>
  </g>
</svg>
