<?xml version="1.0" encoding="UTF-8"?>
<svg xmlns="http://www.w3.org/2000/svg" width="360" height="834" viewBox="0 0 360 834" fill="none">
  <mask id="a" style="mask-type:alpha" maskUnits="userSpaceOnUse" x="-193" y="0" width="2880" height="834">
    <path d="M2172.58 41.663c-189.57-9.513-388.51-28.239-580.36-35.916-197.43-7.92-403.35-7.458-601.084.178-138.816 5.357-273.6 14.19-412.8 19.118C319.672 34.097 52.918 29.503-193 11.757v42.315h2880V43.019c-162.74 10.56-346.3 7.084-514.42-1.356zM-193 54.072h1440V834H-193V54.072z" fill="#FA9999"></path>
  </mask>
  <g mask="url(#a)">
    <path d="M969.618 827.692c-139.812-4.725-286.527-14.025-428.021-17.838-145.6-3.933-297.466-3.704-443.297.089-102.376 2.66-201.78 7.047-304.44 9.495-190.765 4.496-387.496 2.214-568.86-6.599v21.016h2124v-5.49c-120.02 5.245-255.39 3.519-379.382-.673z" fill="#F3F4FB"></path>
    <path fill="#000" d="M-155-218h785V829h-785z"></path>
  </g>
</svg>
