<svg width="36" height="37" viewBox="0 0 36 37" fill="none" xmlns="http://www.w3.org/2000/svg"><g clip-path="url(#clip0_4004_294)"><path d="M18.459 4.038h4.646c.715 0 1.547 0 2.502.123.832 0 1.548.12 2.024.243.476.122.954.245 1.191.365.476.123.835.367 1.072.612.24.243.598.486.954.731.357.367.596.612.715.977.118.366.357.731.596 1.098.118.366.237.733.357 1.22s.237 1.221.237 2.075c0 .977.12 1.83.12 2.563v9.518c0 .733 0 1.588-.12 2.563 0 .854-.118 1.586-.237 2.074-.12.49-.24.977-.357 1.22a2.373 2.373 0 01-.597 1.098c-.238.367-.475.612-.714.978-.358.365-.597.61-.954.732a4.137 4.137 0 01-1.072.486c-.391.141-.789.264-1.191.367a8.365 8.365 0 01-2.024.245c-.954 0-1.787.123-2.502.123h-9.292c-.715 0-1.55 0-2.503-.123a8.333 8.333 0 01-2.024-.245c-.478-.12-.954-.242-1.191-.365-.478-.122-.835-.365-1.072-.488-.358-.245-.597-.488-.954-.732-.357-.366-.596-.61-.715-.976-.237-.367-.357-.732-.596-1.098-.135-.402-.254-.81-.357-1.222a8.966 8.966 0 01-.239-2.074c0-.975-.117-1.83-.117-2.563v-9.518c0-.733 0-1.586.117-2.563 0-.854.12-1.586.24-2.074.119-.488.237-.978.356-1.22.12-.368.359-.733.598-1.099.237-.367.474-.612.713-.977.357-.365.596-.61.952-.733.359-.243.716-.365 1.072-.61.359-.12.715-.243 1.193-.365a8.36 8.36 0 012.024-.243c.953 0 1.788-.123 2.503-.123h4.646zm0-3.173h-4.766c-.715 0-1.548 0-2.502.122-.952 0-1.787.123-2.383.243-.713.123-1.309.368-1.904.612-.598.243-1.072.486-1.67.854-.474.365-.952.732-1.428 1.22s-.953.976-1.192 1.586c-.239.612-.595.977-.834 1.587-.237.61-.475 1.22-.596 1.952a12.884 12.884 0 00-.237 2.44c-.12.978-.12 1.831-.12 2.564v9.64c0 .733 0 1.586.12 2.564 0 .975.12 1.83.237 2.44.12.731.359 1.341.598 1.952.237.612.474 1.098.832 1.71.357.486.716.975 1.192 1.463.476.488.952.855 1.428 1.22.478.366 1.072.61 1.67.855.595.243 1.191.366 1.904.61.716.121 1.43.244 2.383.244.954 0 1.787.122 2.502.122h9.531c.715 0 1.548 0 2.5-.122.954 0 1.787-.123 2.383-.243.715-.123 1.31-.367 1.907-.612a10.613 10.613 0 001.669-.853c.474-.366.952-.733 1.546-1.22a7.791 7.791 0 001.193-1.587c.357-.488.596-1.098.833-1.587.24-.61.359-1.22.476-1.951.12-.733.24-1.466.24-2.564 0-.975.119-1.83.119-2.563v-9.64c0-.733 0-1.587-.12-2.562 0-.978-.12-1.83-.239-2.563-.117-.733-.356-1.343-.474-1.953a11.27 11.27 0 00-.835-1.71c-.358-.609-.715-.974-1.191-1.464a7.673 7.673 0 00-1.55-1.22c-.474-.366-1.072-.61-1.667-.853-.596-.245-1.192-.488-1.907-.612-.713-.12-1.428-.243-2.383-.243h-2.5c-.836.122-2.383.122-4.765.122zm0 8.786c-1.311 0-2.383.245-3.574.732-1.072.488-2.026 1.099-2.86 1.954-.834.853-1.43 1.83-1.906 2.928a8.937 8.937 0 00-.715 3.539c0 1.343.239 2.44.715 3.661.476 1.098 1.072 2.076 1.907 2.929.833.855 1.787 1.465 2.859 1.953 1.071.487 2.263.732 3.574.732 1.31 0 2.382-.245 3.574-.732a8.02 8.02 0 002.858-1.953c.833-.853 1.43-1.83 1.907-2.929.474-1.098.713-2.318.713-3.661a8.94 8.94 0 00-.713-3.539c-.478-1.098-1.072-2.075-1.906-2.929-.835-.854-1.787-1.465-2.86-1.953-1.071-.487-2.382-.732-3.573-.732zm0 15.255c-1.67 0-2.979-.612-4.17-1.71-1.191-1.219-1.67-2.562-1.67-4.27 0-1.585.598-3.05 1.67-4.271 1.072-1.22 2.502-1.83 4.17-1.83 1.667 0 2.978.61 4.17 1.83 1.19 1.22 1.667 2.563 1.667 4.271 0 1.709-.598 3.051-1.67 4.272-1.189 1.098-2.618 1.708-4.167 1.708zm11.435-15.62c0-.61-.237-1.099-.596-1.466a2.17 2.17 0 00-1.428-.61c-.598 0-1.072.245-1.43.612a2.278 2.278 0 00-.596 1.463c0 .488.239 1.098.597 1.586.357.49.953.612 1.429.612.595 0 1.072-.245 1.428-.612.359-.486.596-1.098.596-1.586z" fill="#fff"/></g><defs><clipPath id="clip0_4004_294"><path fill="#fff" transform="translate(.827 .865)" d="M0 0h35.143v36H0z"/></clipPath></defs></svg>