<?xml version="1.0" encoding="UTF-8"?>
<svg xmlns="http://www.w3.org/2000/svg" width="27" height="35" viewBox="0 0 27 35" fill="none">
  <path d="M13.5 7.636a5.91 5.91 0 00-3.314 1.018 6.028 6.028 0 00-2.197 2.713 6.12 6.12 0 00-.34 3.493 6.07 6.07 0 001.633 3.095 5.942 5.942 0 003.054 1.654 5.893 5.893 0 003.447-.344 5.983 5.983 0 002.677-2.226 6.102 6.102 0 001.005-3.359c0-1.603-.628-3.14-1.747-4.274a5.926 5.926 0 00-4.218-1.77zm0 10.18a4.043 4.043 0 01-2.268-.697 4.125 4.125 0 01-1.503-1.856 4.188 4.188 0 01-.232-2.39 4.153 4.153 0 011.117-2.117 4.065 4.065 0 012.09-1.132 4.031 4.031 0 012.358.235 4.094 4.094 0 011.832 1.524 4.176 4.176 0 01-.508 5.222 4.054 4.054 0 01-2.886 1.211zM13.5 0a13.426 13.426 0 00-9.541 4.012A13.79 13.79 0 000 13.68c0 4.917 2.251 10.14 6.51 15.103a39.824 39.824 0 006.45 6.045.934.934 0 001.08 0 39.824 39.824 0 006.45-6.045C24.75 23.82 27 18.603 27 13.68a13.79 13.79 0 00-3.959-9.668A13.426 13.426 0 0013.5 0zm0 32.85c-2.355-1.842-11.616-9.686-11.616-19.17a11.85 11.85 0 013.402-8.323A11.54 11.54 0 0113.5 1.909c3.08 0 6.035 1.24 8.214 3.448a11.852 11.852 0 013.402 8.323c0 9.484-9.261 17.328-11.616 19.17z" fill="#fff"></path>
</svg>
