<svg width="74" height="73" viewBox="0 0 74 73" fill="none" xmlns="http://www.w3.org/2000/svg"><path d="M35.041 29.8a21.787 21.787 0 00-4.751.886c-1.013.305-2.018.874-2.837 1.546-2.407 1.979-2.076 5.611.583 7.215a7.72 7.72 0 001.501.688c1.944.672 3.97.83 6.005.842 2.138.012 4.247.177 6.265.935.633.235 1.261.545 1.803.945.905.672.934 1.76.087 2.51-.406.36-.906.64-1.41.85-1.485.618-3.06.828-4.653.874-2.163.062-4.325.086-6.414-.631-1.17-.4-2.22-.944-2.386-2.325h-2.94c-.02 1.31.55 2.308 1.443 3.137 1.448 1.34 3.201 2.095 5.116 2.486 2.84.577 5.694.474 8.54.037 1.546-.239 3.01-.713 4.316-1.62 2.325-1.612 3.238-5.957-.442-7.879-.277-.144-.554-.292-.84-.42-2.32-1.01-4.772-1.402-7.278-1.468-1.948-.05-3.883-.136-5.723-.829a5.976 5.976 0 01-1.625-.907c-.711-.577-.732-1.472-.042-2.065.476-.408 1.063-.775 1.659-.944 1.203-.334 2.435-.623 3.676-.75 2.824-.293 5.562.156 8.163 1.31.575.256 1.12.573 1.336 1.241.025.083.19.165.294.165.917.013 1.84.008 2.816.008.029-1.05-.319-1.896-1.018-2.502-.76-.656-1.58-1.299-2.48-1.72a17.597 17.597 0 00-5.67-1.566c0-.619-.005-1.715-.005-2.3h9.218v-3.064H25.836v3.063h9.222c0 .578 0 1.65-.004 2.256m5.74-8.11h-2.668V20.25c.418-.19.798-.45 1.117-.771a3.745 3.745 0 000-5.302 3.76 3.76 0 00-2.66-1.097c-1.037 0-1.976.42-2.658 1.097a3.744 3.744 0 000 5.302c.318.321.699.581 1.116.77v1.444h-2.667v1.521h8.42v-1.521zM37.6 17.843a1.436 1.436 0 01-2.035 0 1.428 1.428 0 010-2.028 1.437 1.437 0 012.035 0 1.428 1.428 0 010 2.028z" fill="#17096F"/><path d="M70.92 28.62c-1.899-2.849-4.731-5.195-7.767-6.44-2.617-1.072-5.467-1.385-8.477-.94-2.841-2.87-6.265-5.042-9.958-6.324V8.253c0-4.436-3.552-8.138-7.92-8.25A8.054 8.054 0 0030.91 2.3a8.036 8.036 0 00-2.456 5.809v6.807c-3.693 1.286-7.117 3.459-9.958 6.328-3.01-.445-5.86-.132-8.473.94-3.04 1.241-5.868 3.587-7.766 6.44C.247 31.638-.466 34.862.3 37.468c.301 1.034 1.252 3.492 3.494 4.007.26.058.52.09.777.09 1.667 0 2.854-1.203 4.003-2.366.608-.618 1.233-1.245 1.94-1.748a30.334 30.334 0 00-.31 4.333c0 5.026 1.248 9.94 3.618 14.257-.054.05-.103.103-.157.153-1.381 1.335-3.697 3.566-5.178 6.13-2.402 4.156-1.281 6.989.087 8.638l.112.132.132.107c1.204.977 2.457 1.451 3.83 1.451 3.018 0 6.008-2.321 9.788-5.257.384-.296.814-.63 1.265-.98 3.929 2.362 8.37 3.607 12.894 3.607 4.524 0 8.966-1.245 12.894-3.608.443.342.864.668 1.266.981 3.78 2.94 6.77 5.261 9.788 5.257 1.373 0 2.622-.474 3.83-1.451l.132-.107.111-.132c1.365-1.645 2.49-4.482.087-8.638-1.48-2.564-3.796-4.794-5.177-6.13a5.795 5.795 0 01-.158-.153c2.37-4.316 3.619-9.23 3.619-14.257a30.32 30.32 0 00-.31-4.333c.707.503 1.331 1.134 1.94 1.752 1.149 1.163 2.336 2.367 4.002 2.367.257 0 .517-.029.778-.09 2.241-.516 3.188-2.973 3.494-4.008.765-2.606.054-5.83-1.956-8.844m-20.39 36.257l-.017-.013.57-.705-.553.718zm19.001-28.39c-.277.948-.72 1.513-.91 1.591-.293-.07-1.095-.882-1.53-1.323-1.087-1.101-2.576-2.61-4.714-3.352a7.917 7.917 0 00-1.058-.285l-.157-.016c-.15-.008-.39-.029-.62-.02-.294.007-.58.04-.679.049-.538.053-1.005.4-1.212.923-.12.301-.124.631-.04.944.512 1.942.801 3.958.863 5.987v1.6c-.136 4.642-1.476 9.131-3.874 12.986a1.442 1.442 0 00.128 1.703c.07.083.14.16.21.243.245.273.98 1.015 1.154 1.18 2.155 2.077 7.171 6.922 4.938 9.92-1.898 1.41-3.825.16-9.13-3.963-.435-.338-.89-.693-1.361-1.055l-1.026-.83a1.425 1.425 0 00-1.7-.073 6.939 6.939 0 01-.215.144l-.492.342c-3.486 2.202-7.464 3.364-11.512 3.364-4.049 0-8.027-1.162-11.513-3.364l-.583-.396a1.64 1.64 0 00-1.873.054c-.439.338-1.055.825-1.113.87-.066.053-.848.655-1.22.944-5.305 4.123-7.232 5.372-9.13 3.962-2.234-3.001 2.783-7.842 4.933-9.92.087-.082.376-.383.848-.865l.421-.433a1.51 1.51 0 00.203-1.855c-2.386-3.847-3.722-8.325-3.858-12.955v-1.6c.058-2.007.343-3.998.848-5.92a1.57 1.57 0 00-.257-1.368c-.29-.371-.732-.557-1.207-.656-.174-.037-.608-.037-1.105.037-.525.078-1.05.293-1.178.338-2.138.742-3.627 2.251-4.714 3.352-.435.441-1.237 1.25-1.53 1.324-.19-.079-.633-.644-.91-1.592-1.03-3.508 2.853-9.103 7.7-11.086 1.856-.759 3.903-1.023 6.083-.788.207.021.728.062 1.385.112l.401.029c.451.033.885-.136 1.195-.47a23.614 23.614 0 013.346-2.994l1.323-.903a21.79 21.79 0 015.756-2.572l.422-.112.062-.016c.1-.025.377-.17.53-.371a.942.942 0 00.165-.54l-.062-8.666a4.58 4.58 0 011.402-3.315 4.618 4.618 0 013.366-1.311c2.494.066 4.52 2.205 4.52 4.774v6.823c-.012.202-.012.627 0 1.769v.111a.82.82 0 00.69.784l.104.016c.124.02.277.046.318.054 2.014.565 3.95 1.43 5.757 2.572l1.323.903a23.8 23.8 0 013.552 3.22c.385.425.984.59 1.53.417.368-.116.77-.219 1.229-.31h.086l.046-.02c2.13-.214 4.135.053 5.959.8 4.842 1.983 8.73 7.578 7.7 11.086" fill="#17096F"/><path d="M49.627 49.028v1.225c.02 3.282-3.714 3.6-6.294 4.329-2.159.61-3.751 1.113-5.223 1.913.016-2.222.025-3.987.037-5.137l-.596.095c-.235.037-1.447.053-1.683.02l-.83-.115s.012 3.059.024 5.133c-1.472-.8-3.064-1.303-5.223-1.913-2.58-.73-6.314-1.047-6.298-4.33v-1.224h2.291l-4.574-5.186v6.361c0 8.382 13.126 6.486 15.326 15.152 2.2-8.666 15.325-6.77 15.325-15.152v-6.361l-4.573 5.186h2.287l.004.004z" fill="#17096F"/></svg>