<?xml version="1.0" encoding="UTF-8"?>
<svg xmlns="http://www.w3.org/2000/svg" width="48" height="48" viewBox="0 0 48 48" fill="none">
  <path d="M22.98 19.542a14.21 14.21 0 00-3.116.582c-.664.2-1.323.573-1.86 1.014-1.579 1.297-1.362 3.68.382 4.731.306.187.646.336.985.452 1.274.44 2.603.543 3.937.551 1.402.009 2.785.117 4.109.614.415.154.827.357 1.182.62.594.44.613 1.154.057 1.646a3.349 3.349 0 01-.924.557c-.974.405-2.007.543-3.051.573-1.419.04-2.837.057-4.207-.414-.767-.262-1.456-.619-1.564-1.524h-1.93c-.013.86.361 1.514.947 2.057.949.879 2.099 1.374 3.354 1.63 1.864.379 3.735.311 5.6.025 1.015-.157 1.975-.468 2.832-1.063 1.524-1.057 2.123-3.907-.29-5.167-.182-.094-.364-.192-.55-.275-1.522-.663-3.13-.92-4.774-.963-1.277-.032-2.546-.09-3.753-.543a3.92 3.92 0 01-1.066-.595c-.466-.379-.48-.966-.027-1.355.312-.268.697-.508 1.087-.62.79-.218 1.598-.407 2.411-.491a10.385 10.385 0 015.354.86c.377.167.735.375.876.813.016.054.125.109.192.109.602.008 1.207.005 1.847.005.02-.69-.209-1.244-.667-1.641-.499-.43-1.036-.852-1.627-1.128a11.537 11.537 0 00-3.718-1.027l-.003-1.509h6.045v-2.009H16.943v2.01h6.048c0 .378 0 1.08-.003 1.478m3.765-5.318h-1.75v-.947a2.46 2.46 0 00-1.011-4.701 2.47 2.47 0 00-1.744.719 2.456 2.456 0 00.732 3.983v.946h-1.749v.998h5.521v-.998zM24.659 11.7a.942.942 0 01-1.334 0 .937.937 0 010-1.33.942.942 0 011.334 0 .937.937 0 010 1.33z" fill="#096D8E"></path>
  <path d="M46.51 18.77c-1.245-1.87-3.103-3.408-5.094-4.224-1.716-.703-3.585-.909-5.56-.617-1.862-1.882-4.108-3.306-6.53-4.147v-4.37c0-2.909-2.33-5.337-5.193-5.41a5.282 5.282 0 00-3.862 1.506 5.27 5.27 0 00-1.61 3.81v4.464c-2.423.843-4.668 2.268-6.531 4.15-1.975-.292-3.843-.086-5.557.617-1.993.813-3.848 2.352-5.093 4.223-1.318 1.976-1.785 4.09-1.283 5.8.198.678.822 2.29 2.292 2.628.17.037.341.06.51.06 1.092 0 1.87-.79 2.625-1.553.398-.405.808-.817 1.272-1.146-.136.938-.204 1.89-.204 2.841 0 3.296.82 6.52 2.373 9.35-.035.032-.068.068-.103.1-.906.876-2.424 2.339-3.395 4.02-1.576 2.726-.84 4.584.057 5.665l.073.087.087.07c.789.64 1.61.952 2.511.952 1.98 0 3.94-1.523 6.42-3.448l.83-.643A16.39 16.39 0 0024 45.92c2.967 0 5.88-.817 8.456-2.366l.83.643c2.478 1.928 4.44 3.45 6.419 3.448.9 0 1.72-.311 2.511-.952l.087-.07.073-.087c.895-1.079 1.633-2.939.057-5.664-.97-1.682-2.49-3.145-3.395-4.02l-.103-.1a19.442 19.442 0 002.373-9.35c0-.952-.068-1.904-.204-2.842.464.33.874.743 1.272 1.149.754.762 1.533 1.552 2.626 1.552.168 0 .338-.02.51-.06 1.47-.338 2.09-1.95 2.29-2.628.503-1.709.036-3.823-1.282-5.8m-13.373 23.78l-.01-.008.374-.463-.364.47zm12.463-18.62c-.182.622-.472.993-.597 1.044-.192-.046-.718-.579-1.003-.868-.713-.722-1.69-1.711-3.092-2.198a5.202 5.202 0 00-.694-.187l-.103-.01c-.098-.006-.255-.02-.407-.014-.192.006-.38.027-.445.033a.954.954 0 00-.794.605.987.987 0 00-.027.62 17.5 17.5 0 01.566 3.925v1.05c-.089 3.044-.968 5.988-2.54 8.516-.22.352-.185.8.083 1.117.047.054.093.105.139.16.16.178.642.665.756.773 1.413 1.362 4.703 4.54 3.238 6.505-1.244.925-2.508.105-5.988-2.598-.284-.222-.583-.454-.892-.692l-.672-.544a.935.935 0 00-1.115-.049c-.062.044-.12.081-.141.095l-.323.224a14.127 14.127 0 01-7.55 2.207c-2.655 0-5.264-.763-7.55-2.206l-.382-.26a1.076 1.076 0 00-1.229.035c-.287.222-.691.54-.73.57-.043.036-.555.43-.8.62-3.479 2.703-4.743 3.523-5.987 2.598-1.465-1.968 1.825-5.143 3.235-6.505.057-.054.247-.252.556-.568l.277-.284a.99.99 0 00.132-1.217C9.966 33.908 9.09 30.971 9 27.935v-1.05a17.26 17.26 0 01.556-3.882 1.03 1.03 0 00-.168-.897c-.19-.244-.48-.365-.792-.43-.114-.025-.399-.025-.724.024-.345.051-.689.192-.773.222-1.402.486-2.378 1.476-3.092 2.198-.284.29-.81.82-1.003.868-.125-.052-.415-.422-.597-1.044-.675-2.3 1.872-5.97 5.05-7.27 1.218-.498 2.56-.67 3.99-.517.135.014.477.04.908.073l.263.02c.296.02.58-.09.784-.309a15.492 15.492 0 012.194-1.963l.867-.592a14.293 14.293 0 013.775-1.687l.277-.073.04-.011a.79.79 0 00.348-.243.614.614 0 00.108-.355l-.04-5.683a3 3 0 01.92-2.174 3.028 3.028 0 012.207-.86c1.635.044 2.964 1.447 2.964 3.131v4.475a23.29 23.29 0 000 1.16v.073a.538.538 0 00.453.514l.067.01c.082.014.182.03.21.036 1.32.37 2.59.938 3.774 1.687l.868.592a15.612 15.612 0 012.33 2.112.964.964 0 001.003.273c.242-.076.505-.143.806-.203h.057l.03-.014c1.396-.14 2.711.036 3.907.525 3.176 1.3 5.725 4.97 5.05 7.27" fill="#096D8E"></path>
  <path d="M32.545 32.153v.803c.014 2.152-2.435 2.36-4.127 2.839-1.416.4-2.46.73-3.425 1.255.01-1.458.016-2.615.024-3.37l-.39.063c-.155.024-.95.035-1.104.013l-.545-.075s.008 2.006.016 3.366c-.965-.525-2.01-.855-3.425-1.255-1.692-.478-4.141-.687-4.13-2.839v-.803h1.502l-3-3.401v4.172c0 5.497 8.608 4.253 10.051 9.936 1.443-5.683 10.05-4.44 10.05-9.936v-4.172l-2.999 3.401h1.5l.002.003z" fill="#096D8E"></path>
</svg>
