<?xml version="1.0" encoding="UTF-8"?>
<svg xmlns="http://www.w3.org/2000/svg" width="103" height="31" viewBox="0 0 103 31" fill="none">
  <path fill-rule="evenodd" clip-rule="evenodd" d="M97.443 23.483h-3.09l.206-1.297a3.905 3.905 0 01-2.889 1.297c-2.693 0-3.935-2.584-3.935-5.4 0-4.314 2.483-7.982 5.387-7.982 1.86 0 3.09 1.726 3.09 1.726l.608-4.532 3.09.434-2.467 15.754zm-2.276-7.554c0-1.943-.417-2.806-1.658-2.806-1.453 0-2.488 1.726-2.488 4.315 0 1.514.417 2.583 1.658 2.583 1.865.005 2.694-2.366 2.488-4.092zm-10.568 7.12h-3.311l2.06-12.948h2.9l-.207 1.943s1.03-1.943 2.487-1.943h.618c-.582 1.159-1 2.393-1.24 3.668-2.272-.646-2.272 3.669-3.307 9.28zm-6.628.201l.206-1.297a4.075 4.075 0 01-3.311 1.514c-1.247 0-3.09-.65-3.09-3.673 0-3.663 2.899-4.96 5.587-4.96h1.432c.167-.255.24-.56.206-.863 0-.863-.83-1.08-2.06-1.08a9.468 9.468 0 00-3.523.646l.418-3.018a11.81 11.81 0 013.929-.635c1.03 0 4.352.217 4.352 4.102l-1.262 9.264h-2.884zm-.206-6.045c-2.487 0-2.9 1.08-2.9 1.943a1.207 1.207 0 00.747 1.21c.157.063.326.093.495.087 1.864 0 2.276-2.584 2.276-3.24h-.618zm-8.492-6.871c-2.282 0-4.12 2.16-4.12 6.04 0 1.942.829 3.668 3.316 3.668 1.03 0 2.694-.863 2.694-.863l-.623 3.668c-.882.233-1.784.378-2.694.434-3.935 0-5.799-2.805-5.799-6.908 0-6.257 3.523-9.496 7.251-9.496a9.966 9.966 0 013.497.873l-.623 3.451a5.59 5.59 0 00-2.9-.867zm-6.906-.31c.025-.047.046-.094.067-.14a.16.16 0 01-.067.14zm-4.491 13.025H54.59s.731-4.599 1.329-8.313l.741-4.65h2.9l-.206 1.942s1.03-1.943 2.482-1.943c.288 0 .469 0 .556-.077a13.462 13.462 0 00-1.174 3.746c-2.302-.63-2.508 3.684-3.342 9.295zm-10.15-5.167s-.619 2.583 2.904 2.583a9.762 9.762 0 003.311-.863l-.623 3.235s-1.03.65-3.311.65c-2.694 0-5.593-1.079-5.593-5.827 0-4.103 2.276-7.75 5.593-7.75 3.517 0 4.557 2.805 4.557 4.965a25.178 25.178 0 01-.417 3.023l-6.422-.016zm2.28-4.965c-1.658 0-2.06 1.943-2.06 2.377h3.518c-.01-.228.407-2.377-1.457-2.377zm-5.592.429h-1.669l-.819 5.605c0 .43.206 1.075 1.241 1.075h.83l-.413 2.806c-.417 0-1.24.434-2.487.434-1.442-.016-2.472-.863-2.472-2.806 0-1.297 1.86-12.302 1.86-12.302h3.09l-.418 1.943h1.648l-.391 3.245zm-8.287-.43c-1.246 0-1.864.43-1.864 1.08 0 1.726 3.729.864 3.729 4.966 0 4.531-4.12 4.314-4.764 4.314-2.694 0-3.523-.434-3.523-.434l.412-3.022a11.65 11.65 0 002.905.433c1.03 0 2.06 0 2.06-1.08 0-1.508-3.94-1.08-3.94-4.96 0-3.239 2.488-4.319 4.764-4.319.973-.017 1.945.055 2.904.217l-.417 3.023s-1.828-.217-2.266-.217zM26.183 23.25l.206-1.297a4.075 4.075 0 01-3.312 1.514c-1.246 0-3.09-.65-3.09-3.673 0-3.663 2.895-4.96 5.588-4.96h1.452c.168-.255.24-.56.206-.863 0-.863-.829-1.08-2.06-1.08a9.47 9.47 0 00-3.543.661l.417-3.017a11.808 11.808 0 013.935-.651c1.03 0 4.352.217 4.352 4.102l-1.252 9.264h-2.9zm-.206-6.045c-2.488 0-2.9 1.08-2.9 1.943a1.207 1.207 0 00.747 1.21c.157.063.325.093.494.087 1.865 0 2.277-2.584 2.277-3.24h-.618zM15.203 23.05l1.864-11.884-4.12 11.884h-2.06l-.412-11.884L8.611 23.05H5.52L8.003 7.295h4.764l.206 9.714 3.09-9.714h4.97L18.54 23.05h-3.337z" fill="#808184"></path>
</svg>
