<?xml version="1.0" encoding="UTF-8"?>
<svg xmlns="http://www.w3.org/2000/svg" width="100" height="30" viewBox="0 0 100 30" fill="none">
  <path fill-rule="evenodd" clip-rule="evenodd" d="M33.648 9.337a2.775 2.775 0 00-1.032-1.125 2.614 2.614 0 00-1.54-.563 9.54 9.54 0 00-2.065-.141h-3.747a.936.936 0 00-.567.195 1.015 1.015 0 00-.35.509l-2.31 11.806a.537.537 0 00.065.508.492.492 0 00.2.161.48.48 0 00.25.035h1.795a.949.949 0 00.556-.203c.162-.126.282-.3.345-.501l.647-2.812c.063-.204.185-.382.35-.508a.935.935 0 01.567-.196h.385c2.195 0 3.87-.405 5.03-1.408a4.679 4.679 0 001.331-1.673 4.924 4.924 0 00.475-2.122c0-.98-.131-1.542-.385-1.962zm-3.744 3.795a3.465 3.465 0 01-2.19.7h-.517a.464.464 0 01-.25-.033.49.49 0 01-.201-.16.523.523 0 01-.065-.507l.516-2.533c.064-.201.184-.377.347-.503a.948.948 0 01.558-.201h.643a2.561 2.561 0 011.54.405c.17.126.306.296.396.492.09.197.132.414.12.632a2.684 2.684 0 01-.897 1.708zm24.263-1.408L47.07 24.796c-.13.2-.3.369-.5.49-.2.122-.425.195-.655.214h-1.822c-.385 0-.516-.283-.261-.704l1.54-2.953s.13-.138 0-1.121c-.127-1.97-1.286-9.42-1.286-9.42a.532.532 0 01.06-.508.49.49 0 01.201-.161.463.463 0 01.25-.034h1.541c.516 0 .905.283.905.704l.798 5.199h.258c.246-.405 2.823-5.2 2.823-5.2.13-.2.3-.368.5-.49.2-.121.424-.194.655-.213h2.064c.782 0 .008 1.125.008 1.125h.02zm11.735-2.387a2.775 2.775 0 00-1.032-1.125 2.614 2.614 0 00-1.54-.563 9.49 9.49 0 00-2.061-.141h-3.744a.94.94 0 00-.557.2 1.02 1.02 0 00-.344.504l-2.45 11.806a.536.536 0 00.066.508.492.492 0 00.2.161.48.48 0 00.25.035h1.807a.945.945 0 00.557-.202c.161-.126.282-.302.344-.502l.643-2.812c.062-.197.18-.37.336-.495a.95.95 0 01.543-.21h.516c2.191 0 3.85-.404 5.03-1.407a4.679 4.679 0 001.33-1.673 4.924 4.924 0 00.476-2.122c-.131-.838-.262-1.404-.39-1.962h.02zm-3.89 3.928a3.436 3.436 0 01-2.187.704h-.386a.464.464 0 01-.253-.03.488.488 0 01-.203-.161.525.525 0 01-.063-.513l.516-2.529c.062-.201.182-.377.343-.504a.945.945 0 01.558-.204h.516a2.563 2.563 0 011.54.425c.17.126.307.296.397.492.09.197.131.415.12.633a3.048 3.048 0 01-.898 1.687zm-19.726-2.241c-.647-.425-1.675-.563-3.223-.563a11.703 11.703 0 00-2.192.138 2.678 2.678 0 01-.905.142c-.19.05-.364.157-.5.307s-.23.336-.27.538l-.127 1.12c-.131.563.254.563.385.563a5.83 5.83 0 011.032-.279 6.914 6.914 0 011.675-.283 3.871 3.871 0 011.541.283.74.74 0 01.405.321.804.804 0 01.111.52v.284h-.258a14.92 14.92 0 00-2.58.279 6.96 6.96 0 00-2.192.704c-.617.26-1.151.7-1.54 1.266a3.41 3.41 0 00-.516 1.967 2.4 2.4 0 00.186 1.006c.133.317.333.598.584.822.513.434 1.148.68 1.806.7.39.039.784-.008 1.156-.137l.9-.284.771-.404.643-.405-.127.28a.533.533 0 00.062.51.489.489 0 00.202.161c.08.034.167.046.252.033h1.687c.385 0 .643-.405.77-.704l1.294-6.077.127-.567v-.405c-.258-.857-.516-1.416-1.159-1.836zm-2.965 6.878l-.258.404-.647.405a3.033 3.033 0 01-.901.283 2.31 2.31 0 01-1.033-.142l-.385-.703c.007-.346.096-.684.258-.984l.77-.562a2.887 2.887 0 011.156-.28c.385 0 1.155-.14 1.29-.14l.127.282a9.64 9.64 0 00-.377 1.445v-.008zm35.073-6.878c-.647-.425-1.675-.563-3.224-.563a11.77 11.77 0 00-2.195.138 2.66 2.66 0 01-.901.142c-.19.052-.363.159-.5.308a1.137 1.137 0 00-.27.537l-.127 1.12c-.131.563.258.563.385.563a5.835 5.835 0 011.032-.279 6.916 6.916 0 011.675-.283 3.87 3.87 0 011.54.283.736.736 0 01.407.32.8.8 0 01.11.521v.284h-.258c-.865.01-1.728.104-2.577.279a6.951 6.951 0 00-2.195.704 3.58 3.58 0 00-1.54 1.266 3.436 3.436 0 00-.513 1.967c-.01.346.054.69.188 1.006.133.316.332.598.582.822.514.434 1.148.68 1.807.7.39.04.783-.007 1.155-.137l.905-.284.77-.404.647-.405v.28a.533.533 0 00.062.508.489.489 0 00.2.162c.08.034.166.046.25.034h1.676c.385 0 .647-.405.77-.704l1.313-6.077.116-.567v-.405a3.592 3.592 0 00-1.271-1.836h-.02zm-2.839 6.878l-.254.404-.647.405a3.053 3.053 0 01-.905.283c-.18.03-.365.02-.542-.03a1.309 1.309 0 01-.486-.253l-.385-.7c.006-.347.095-.686.258-.987.085-.144.198-.267.33-.363.132-.096.282-.163.44-.196.358-.19.754-.288 1.155-.283.386 0 1.156-.141 1.29-.141l.132.283c-.127.04-.255 1.023-.386 1.586v-.008zm9.413-9.71l-2.31 11.664-.132.141a.907.907 0 01-.307.4.843.843 0 01-.463.163h-1.54a.455.455 0 01-.213-.075.484.484 0 01-.156-.171.511.511 0 01-.017-.458l.131-.28 2.192-10.964.127-.404.13-.142a.9.9 0 01.307-.4.835.835 0 01.464-.162h1.54c.12.004.378.425.24.708l.007-.02z" fill="#808184"></path>
</svg>
