<?xml version="1.0" encoding="UTF-8"?>
<svg xmlns="http://www.w3.org/2000/svg" width="1440" height="817" viewBox="0 0 1440 817" fill="none">
  <mask id="a" style="mask-type:alpha" maskUnits="userSpaceOnUse" x="-1450" y="0" width="4346" height="817">
    <path d="M-1.006 51.285H1447.04v740.112H-1.006V51.285z" fill="#FA9999"></path>
    <path d="M-931.761 777.091c190.635 9.077 390.682 26.943 583.61 34.268 198.527 7.556 405.598 7.115 604.438-.17 139.592-5.112 275.129-13.539 415.107-18.241 260.109-8.639 528.356-4.255 775.646 12.676v-40.373l-2896.09.001v10.545c163.65-10.075 348.23-6.759 517.289 1.294zM2377.79 39.75c-190.63-9.076-390.68-26.942-583.61-34.267-198.52-7.556-405.59-7.116-604.43.17-139.6 5.111-275.133 13.539-415.111 18.24-260.109 8.64-528.353 4.255-775.645-12.675V51.59H2895.08V41.045c-163.65 10.075-348.23 6.758-517.29-1.294z" fill="#FA9999"></path>
  </mask>
  <g mask="url(#a)">
    <path fill="#000" d="M1-65.101h1439v1080H1z"></path>
  </g>
</svg>
