<?xml version="1.0" encoding="UTF-8"?>
<svg xmlns="http://www.w3.org/2000/svg" width="30" height="30" viewBox="0 0 30 30" fill="none">
  <path d="M7.266 27.656a1.172 1.172 0 11-2.344 0 1.172 1.172 0 012.344 0zm2.578-4.922a1.172 1.172 0 100 2.344 1.172 1.172 0 000-2.344zm-7.5 0a1.172 1.172 0 100 2.344 1.172 1.172 0 000-2.344zm3.75-3.75a1.172 1.172 0 100 2.344 1.172 1.172 0 000-2.344zM29.766 4.687a.703.703 0 01-.703.704h-3.459l-3.386 3.385-2.55 14.933a1.64 1.64 0 01-2.779.887L5.405 13.112a1.64 1.64 0 01.89-2.778l14.93-2.55 3.592-3.592a.703.703 0 01.495-.208h3.75a.703.703 0 01.704.704zm-9.064 4.61L6.527 11.72a.234.234 0 00-.13.397L17.882 23.6a.235.235 0 00.397-.127l2.423-14.175z" fill="#096D8E"></path>
</svg>
