<?xml version="1.0" encoding="UTF-8"?>
<svg xmlns="http://www.w3.org/2000/svg" width="40" height="36" viewBox="0 0 40 36" fill="none">
  <path d="M24.093.278L39.745 17.33c.08.088.145.192.189.307a1.02 1.02 0 01-.189 1.033L24.093 35.722a.836.836 0 01-.615.278c-.23 0-.452-.1-.615-.278a.993.993 0 01-.255-.67.99.99 0 01.255-.67L37.03 18.947H.87a.836.836 0 01-.615-.277A.992.992 0 010 18c0-.251.092-.492.255-.67a.835.835 0 01.615-.277h36.16L22.863 1.618a.992.992 0 01-.255-.67c0-.252.091-.493.255-.67A.835.835 0 0123.478 0c.23 0 .452.1.615.278z" fill="#fff"></path>
</svg>
