<?xml version="1.0" encoding="UTF-8"?>
<svg xmlns="http://www.w3.org/2000/svg" width="40" height="36" viewBox="0 0 40 36" fill="none">
  <path d="M15.907 35.722L.255 18.67a.956.956 0 01-.189-.307 1.021 1.021 0 010-.726.956.956 0 01.189-.307L15.907.278A.836.836 0 0116.522 0c.23 0 .452.1.615.278a.992.992 0 01.255.67.992.992 0 01-.255.67L2.97 17.053h36.16c.231 0 .452.1.615.277A.992.992 0 0140 18a.992.992 0 01-.255.67.835.835 0 01-.614.277H2.97l14.166 15.435a.993.993 0 01.255.67.993.993 0 01-.255.67.836.836 0 01-.615.278c-.23 0-.452-.1-.615-.278z" fill="#fff"></path>
</svg>
