<?xml version="1.0" encoding="UTF-8"?>
<svg xmlns="http://www.w3.org/2000/svg" width="30" height="30" viewBox="0 0 30 30" fill="none">
  <path d="M15 4.922a11.016 11.016 0 1011.016 11.015A11.029 11.029 0 0015 4.922zm0 20.625a9.61 9.61 0 119.61-9.61 9.62 9.62 0 01-9.61 9.61zm5.184-14.794a.703.703 0 010 .994l-4.687 4.687a.702.702 0 11-.994-.993l4.688-4.688a.704.704 0 01.993 0zm-8.7-8.878a.703.703 0 01.704-.703h5.624a.703.703 0 110 1.406h-5.625a.703.703 0 01-.703-.703z" fill="#096D8E"></path>
</svg>
