<?xml version="1.0" encoding="UTF-8"?>
<svg xmlns="http://www.w3.org/2000/svg" width="13" height="13" viewBox="0 0 13 13" fill="none">
  <path d="M11.959 2.018a2.216 2.216 0 01-.775-.694l-.35-.508-.35.508a2.217 2.217 0 01-.776.694c-.31.167-.663.26-1.041.261a2.192 2.192 0 01-1.817-.955L6.5.816l-.35.508a2.192 2.192 0 01-1.816.955c-.379 0-.731-.094-1.042-.26a2.218 2.218 0 01-.775-.695l-.35-.508-.35.508A2.195 2.195 0 010 2.279v.851a3.041 3.041 0 002.167-.901 3.042 3.042 0 002.167.901 3.042 3.042 0 002.166-.9 3.042 3.042 0 002.167.901 3.042 3.042 0 002.166-.901 3.042 3.042 0 002.167.9v-.85a2.199 2.199 0 01-1.041-.262zm-.775 3.832l-.35-.507-.35.508a2.22 2.22 0 01-.776.694c-.31.167-.663.26-1.041.26a2.19 2.19 0 01-1.041-.26 2.221 2.221 0 01-.776-.694l-.35-.508-.35.508a2.22 2.22 0 01-.776.694c-.31.167-.663.26-1.04.26-.379 0-.732-.093-1.042-.26a2.22 2.22 0 01-.775-.694l-.35-.508-.35.508a2.22 2.22 0 01-.776.694c-.31.167-.663.26-1.041.26v.852a3.047 3.047 0 002.167-.902 3.047 3.047 0 002.167.902A3.048 3.048 0 006.5 6.755a3.047 3.047 0 002.167.902 3.048 3.048 0 002.166-.902A3.047 3.047 0 0013 7.657v-.851c-.378 0-.731-.094-1.041-.261a2.219 2.219 0 01-.775-.694zm0 4.528l-.35-.508-.35.508a2.22 2.22 0 01-.776.694c-.31.166-.663.26-1.041.26-.378 0-.731-.094-1.041-.26a2.221 2.221 0 01-.776-.694L6.5 9.87l-.35.508a2.221 2.221 0 01-.776.694 2.19 2.19 0 01-1.04.26c-.379 0-.731-.094-1.042-.26a2.22 2.22 0 01-.775-.694l-.35-.508-.35.508a2.22 2.22 0 01-.776.694c-.31.166-.663.26-1.041.26v.852a3.044 3.044 0 002.167-.902 3.045 3.045 0 002.167.902 3.045 3.045 0 002.166-.902 3.045 3.045 0 002.167.902 3.045 3.045 0 002.166-.902 3.044 3.044 0 002.167.902v-.851c-.378 0-.731-.095-1.041-.261a2.22 2.22 0 01-.775-.694z" fill="#096D8E"></path>
</svg>
