<svg width="37" height="26" viewBox="0 0 37 26" fill="none" xmlns="http://www.w3.org/2000/svg"><path d="M36.247 4.105A4.543 4.543 0 0033.062.878C30.252.115 18.985.115 18.985.115S7.718.115 4.91.878a4.542 4.542 0 00-3.186 3.227C.97 6.952.97 12.891.97 12.891s0 5.94.753 8.786c.415 1.57 1.635 2.756 3.186 3.175 2.81.763 14.076.763 14.076.763s11.267 0 14.077-.762c1.55-.42 2.77-1.606 3.185-3.176C37 18.83 37 12.89 37 12.89s0-5.94-.753-8.786zM15.3 18.283V7.5l9.417 5.392-9.417 5.392z" fill="#FAF9F6"/></svg>